<svg preserveAspectRatio="none" width="100%" height="100%" overflow="visible" style="display: block;" viewBox="0 0 12 12" fill="none" xmlns="http://www.w3.org/2000/svg">
<g id="Layers 2">
<g clip-path="url(#clip0_0_13)">
<path id="Vector" d="M6.5 6.87C6.34798 6.95777 6.17554 7.00397 6 7.00397C5.82446 7.00397 5.65202 6.95777 5.5 6.87L1.25 4.435C1.17305 4.39139 1.10905 4.32815 1.06452 4.25173C1.01999 4.17531 0.996526 4.08845 0.996526 4C0.996526 3.91155 1.01999 3.82469 1.06452 3.74827C1.10905 3.67185 1.17305 3.60861 1.25 3.565L5.5 1.13C5.65202 1.04223 5.82446 0.996025 6 0.996025C6.17554 0.996025 6.34798 1.04223 6.5 1.13L10.75 3.565C10.8269 3.60861 10.891 3.67185 10.9355 3.74827C10.98 3.82469 11.0035 3.91155 11.0035 4C11.0035 4.08845 10.98 4.17531 10.9355 4.25173C10.891 4.32815 10.8269 4.39139 10.75 4.435L6.5 6.87Z" stroke="var(--stroke-0, #9A8060)" stroke-linecap="round" stroke-linejoin="round"/>
<path id="Vector_2" d="M10 7.1425L10.75 7.565C10.8269 7.60861 10.891 7.67185 10.9355 7.74827C10.98 7.82469 11.0035 7.91155 11.0035 8C11.0035 8.08845 10.98 8.17531 10.9355 8.25173C10.891 8.32815 10.8269 8.39139 10.75 8.435L6.5 10.87C6.34798 10.9578 6.17554 11.004 6 11.004C5.82446 11.004 5.65202 10.9578 5.5 10.87L1.25 8.435C1.17305 8.39139 1.10905 8.32815 1.06452 8.25173C1.01999 8.17531 0.996526 8.08845 0.996526 8C0.996526 7.91155 1.01999 7.82469 1.06452 7.74827C1.10905 7.67185 1.17305 7.60861 1.25 7.565L2 7.1425" stroke="var(--stroke-0, #9A8060)" stroke-linecap="round" stroke-linejoin="round"/>
</g>
</g>
<defs>
<clipPath id="clip0_0_13">
<path d="M0 0H12V12H0V0Z" fill="white"/>
</clipPath>
</defs>
</svg>
