<svg preserveAspectRatio="none" width="100%" height="100%" overflow="visible" style="display: block;" viewBox="0 0 11 11" fill="none" xmlns="http://www.w3.org/2000/svg">
<g id="Lock">
<g clip-path="url(#clip0_0_10)">
<path id="Vector" d="M8.70833 5.04167H2.29167C1.78541 5.04167 1.375 5.45207 1.375 5.95833V9.16667C1.375 9.67293 1.78541 10.0833 2.29167 10.0833H8.70833C9.21459 10.0833 9.625 9.67293 9.625 9.16667V5.95833C9.625 5.45207 9.21459 5.04167 8.70833 5.04167Z" stroke="var(--stroke-0, #C4B8A4)" stroke-width="0.916667" stroke-linecap="round" stroke-linejoin="round"/>
<path id="Vector_2" d="M3.20833 5.04167V3.20833C3.20833 2.60055 3.44978 2.01765 3.87955 1.58788C4.30932 1.15811 4.89221 0.916667 5.5 0.916667C6.10779 0.916667 6.69068 1.15811 7.12045 1.58788C7.55022 2.01765 7.79167 2.60055 7.79167 3.20833V5.04167" stroke="var(--stroke-0, #C4B8A4)" stroke-width="0.916667" stroke-linecap="round" stroke-linejoin="round"/>
</g>
</g>
<defs>
<clipPath id="clip0_0_10">
<path d="M0 0H11V11H0V0Z" fill="white"/>
</clipPath>
</defs>
</svg>
