<svg preserveAspectRatio="none" width="100%" height="100%" overflow="visible" style="display: block;" viewBox="0 0 12 12" fill="none" xmlns="http://www.w3.org/2000/svg">
<g id="Quote">
<path id="Vector" d="M8 1.5C7.73478 1.5 7.48043 1.60536 7.29289 1.79289C7.10536 1.98043 7 2.23478 7 2.5V5.5C7 5.76522 7.10536 6.01957 7.29289 6.20711C7.48043 6.39464 7.73478 6.5 8 6.5C8.13261 6.5 8.25979 6.55268 8.35355 6.64645C8.44732 6.74021 8.5 6.86739 8.5 7V7.5C8.5 7.76522 8.39464 8.01957 8.20711 8.20711C8.01957 8.39464 7.76522 8.5 7.5 8.5C7.36739 8.5 7.24021 8.55268 7.14645 8.64645C7.05268 8.74021 7 8.86739 7 9V10C7 10.1326 7.05268 10.2598 7.14645 10.3536C7.24021 10.4473 7.36739 10.5 7.5 10.5C8.29565 10.5 9.05871 10.1839 9.62132 9.62132C10.1839 9.05871 10.5 8.29565 10.5 7.5V2.5C10.5 2.23478 10.3946 1.98043 10.2071 1.79289C10.0196 1.60536 9.76522 1.5 9.5 1.5H8Z" stroke="var(--stroke-0, #9A8878)" stroke-linecap="round" stroke-linejoin="round"/>
<path id="Vector_2" d="M2.5 1.5C2.23478 1.5 1.98043 1.60536 1.79289 1.79289C1.60536 1.98043 1.5 2.23478 1.5 2.5V5.5C1.5 5.76522 1.60536 6.01957 1.79289 6.20711C1.98043 6.39464 2.23478 6.5 2.5 6.5C2.63261 6.5 2.75979 6.55268 2.85355 6.64645C2.94732 6.74021 3 6.86739 3 7V7.5C3 7.76522 2.89464 8.01957 2.70711 8.20711C2.51957 8.39464 2.26522 8.5 2 8.5C1.86739 8.5 1.74021 8.55268 1.64645 8.64645C1.55268 8.74021 1.5 8.86739 1.5 9V10C1.5 10.1326 1.55268 10.2598 1.64645 10.3536C1.74021 10.4473 1.86739 10.5 2 10.5C2.79565 10.5 3.55871 10.1839 4.12132 9.62132C4.68393 9.05871 5 8.29565 5 7.5V2.5C5 2.23478 4.89464 1.98043 4.70711 1.79289C4.51957 1.60536 4.26522 1.5 4 1.5H2.5Z" stroke="var(--stroke-0, #9A8878)" stroke-linecap="round" stroke-linejoin="round"/>
</g>
</svg>
