<svg preserveAspectRatio="none" width="100%" height="100%" overflow="visible" style="display: block;" viewBox="0 0 22 22" fill="none" xmlns="http://www.w3.org/2000/svg">
<g id="Users Round">
<path id="Vector" d="M16.5 19.25C16.5 17.3051 15.7274 15.4398 14.3521 14.0646C12.9769 12.6893 11.1116 11.9167 9.16667 11.9167C7.22175 11.9167 5.35648 12.6893 3.98122 14.0646C2.60595 15.4398 1.83333 17.3051 1.83333 19.25" stroke="var(--stroke-0, #C4B8A4)" stroke-width="1.83333" stroke-linecap="round" stroke-linejoin="round"/>
<path id="Vector_2" d="M9.16667 11.9167C11.698 11.9167 13.75 9.86464 13.75 7.33333C13.75 4.80203 11.698 2.75 9.16667 2.75C6.63536 2.75 4.58333 4.80203 4.58333 7.33333C4.58333 9.86464 6.63536 11.9167 9.16667 11.9167Z" stroke="var(--stroke-0, #C4B8A4)" stroke-width="1.83333" stroke-linecap="round" stroke-linejoin="round"/>
<path id="Vector_3" d="M20.1667 18.3333C20.1667 15.2442 18.3333 12.375 16.5 11C17.1026 10.5479 17.5845 9.95416 17.903 9.27141C18.2215 8.58866 18.3668 7.83793 18.326 7.08565C18.2852 6.33337 18.0596 5.60275 17.6692 4.95843C17.2787 4.31412 16.7355 3.77599 16.0875 3.39167" stroke="var(--stroke-0, #C4B8A4)" stroke-width="1.83333" stroke-linecap="round" stroke-linejoin="round"/>
</g>
</svg>
